;TYPE=PLATED
;Layer: PTH_Through
;EasyEDA Pro v2.2.47.7, 2026-05-26 21:04:04
;Gerber Generator version 0.3
M48
METRIC,LZ,0000.00000
;Hole size 1 = 0.30500 METRIC
T01C0.30500
;Hole size 2 = 0.80000 METRIC
T02C0.80000
;Hole size 3 = 1.02001 METRIC
T03C1.02001
;Hole size 4 = 1.10002 METRIC
T04C1.10002
%
G05
G90
T01
X-2.54Y11.811
X-7.239Y1.27
X-5.08Y11.811
X3.556Y-8.636
X7.874Y13.462
X-3.683Y-6.35
X-10.16Y11.43
X-3.683Y-9.144
X-11.938Y-6.731
T02
X-15.621Y4.99999
X-15.621Y2.49999
X-15.621Y0.0
X-15.621Y-2.49999
X-15.621Y-4.99999
T03
X-7.26Y-1.13
X-7.26Y-3.67
X-7.26Y-6.21
X-7.26Y-8.75
X-7.26Y-11.29
X-7.26Y-13.83
X-7.26Y-16.36997
X7.26Y-16.37
X7.26Y-13.83
X7.26Y-11.29
X7.26Y-8.75
X7.26Y-6.21
X7.26Y-3.67
X7.26Y-1.13003
T04
X10.16Y16.55
X7.62Y16.55
X5.08Y16.55
X2.54Y16.55
X0.0Y16.55
X-2.54Y16.55
X-5.08Y16.55
X-7.62Y16.55
X-10.16Y16.55
M30