G04 Layer: TopLayer*
G04 EasyEDA Pro v2.2.47.7, 2026-05-26 21:04:04*
G04 Gerber Generator version 0.3*
G04 Scale: 100 percent, Rotated: No, Reflected: No*
G04 Dimensions in millimeters*
G04 Leading zeros omitted, absolute positions, 4 integers and 5 decimals*
G04 Generated by one-click*
G04 Object Configs: Pad,Via,Track,Text,Image,Dimension,BoardOutline,BoardCutout,CopperFilled,SolidRegion,FPCStiffener,Line,PlaneZone,ComponentProperty,ComponentSilkscreen,TearDrop*
G04 Layer Configs: 1,2,3,4,5,6,7,8,9,10,11,13,14,56*
G04 Copper Areas: 7*
%FSLAX45Y45*%
%MOMM*%
%ADD10C,0.2032*%
%ADD11C,0.254*%
%ADD12C,2.5*%
%ADD13C,1.4*%
%ADD14R,1.6X1.6*%
%ADD15C,1.6*%
%ADD16R,1.7061X1.7*%
%ADD17R,1.7X1.7*%
%ADD18C,1.7*%
%ADD19C,0.61*%
G75*


G04 Copper Start*
G36*
G01X-1742186Y1805000D02*
G01X-1740577Y1819283D01*
G01X-1735830Y1832849D01*
G01X-1728183Y1845019D01*
G01X-1718019Y1855183D01*
G01X-1705849Y1862830D01*
G01X-1692283Y1867577D01*
G01X-1678000Y1869186D01*
G01X1678000Y1869186D01*
G01X1692283Y1867577D01*
G01X1705849Y1862830D01*
G01X1718019Y1855183D01*
G01X1728183Y1845019D01*
G01X1735830Y1832849D01*
G01X1740577Y1819283D01*
G01X1742186Y1805000D01*
G01X1742186Y-1805000D01*
G01X1740577Y-1819283D01*
G01X1735830Y-1832849D01*
G01X1728183Y-1845019D01*
G01X1718019Y-1855183D01*
G01X1705849Y-1862830D01*
G01X1692283Y-1867577D01*
G01X1678000Y-1869186D01*
G01X-1678000Y-1869186D01*
G01X-1692283Y-1867577D01*
G01X-1705849Y-1862830D01*
G01X-1718019Y-1855183D01*
G01X-1728183Y-1845019D01*
G01X-1735830Y-1832849D01*
G01X-1740577Y-1819283D01*
G01X-1742186Y-1805000D01*
G01X-1742186Y-1655000D01*
G01X-1688814Y-1655000D01*
G01X-1686834Y-1680157D01*
G01X-1680943Y-1704694D01*
G01X-1671286Y-1728008D01*
G01X-1658101Y-1749524D01*
G01X-1641713Y-1768713D01*
G01X-1622524Y-1785101D01*
G01X-1601008Y-1798286D01*
G01X-1577694Y-1807943D01*
G01X-1553157Y-1813834D01*
G01X-1528000Y-1815814D01*
G01X-1502843Y-1813834D01*
G01X-1478306Y-1807943D01*
G01X-1454992Y-1798286D01*
G01X-1433476Y-1785101D01*
G01X-1414287Y-1768713D01*
G01X-1397899Y-1749524D01*
G01X-1384714Y-1728008D01*
G01X-1375057Y-1704694D01*
G01X-1369166Y-1680157D01*
G01X-1367186Y-1655000D01*
G01X-1369166Y-1629843D01*
G01X-1375057Y-1605306D01*
G01X-1384714Y-1581992D01*
G01X-1397899Y-1560476D01*
G01X-1414287Y-1541287D01*
G01X-1433476Y-1524899D01*
G01X-1454992Y-1511714D01*
G01X-1478306Y-1502057D01*
G01X-1502843Y-1496166D01*
G01X-1528000Y-1494186D01*
G01X-1553157Y-1496166D01*
G01X-1577694Y-1502057D01*
G01X-1601008Y-1511714D01*
G01X-1622524Y-1524899D01*
G01X-1641713Y-1541287D01*
G01X-1658101Y-1560476D01*
G01X-1671286Y-1581992D01*
G01X-1680943Y-1605306D01*
G01X-1686834Y-1629843D01*
G01X-1688814Y-1655000D01*
G01X-1688814Y-1655000D01*
G01X-1742186Y-1655000D01*
G01X-1742186Y-494947D01*
G01X-1667793Y-494947D01*
G01X-1666840Y-515038D01*
G01X-1662101Y-534587D01*
G01X-1653750Y-552885D01*
G01X-1642086Y-569272D01*
G01X-1627532Y-583157D01*
G01X-1610614Y-594036D01*
G01X-1610614Y-699494D01*
G01X-1608961Y-712050D01*
G01X-1604114Y-723751D01*
G01X-1596405Y-733798D01*
G01X-789836Y-1540367D01*
G01X-789836Y-1540367D01*
G01X-805737Y-1553007D01*
G01X-819186Y-1568230D01*
G01X-829768Y-1585570D01*
G01X-837158Y-1604491D01*
G01X-841128Y-1624412D01*
G01X-841556Y-1644721D01*
G01X-838430Y-1664792D01*
G01X-831845Y-1684008D01*
G01X-822004Y-1701778D01*
G01X-809209Y-1717555D01*
G01X-793855Y-1730854D01*
G01X-776413Y-1741266D01*
G01X-757420Y-1748470D01*
G01X-737461Y-1752245D01*
G01X-717149Y-1752475D01*
G01X-697110Y-1749153D01*
G01X-677959Y-1742380D01*
G01X-660286Y-1732365D01*
G01X-644635Y-1719417D01*
G01X-631486Y-1703933D01*
G01X-621246Y-1686390D01*
G01X-614228Y-1667328D01*
G01X-610648Y-1647333D01*
G01X-610617Y-1627020D01*
G01X-614136Y-1607014D01*
G01X-621095Y-1587930D01*
G01X-631282Y-1570356D01*
G01X-644383Y-1554832D01*
G01X-659995Y-1541836D01*
G01X-677637Y-1531768D01*
G01X-679865Y-1520589D01*
G01X-684639Y-1510240D01*
G01X-691695Y-1501289D01*
G01X-697685Y-1495299D01*
G01X-678484Y-1488618D01*
G01X-660748Y-1478682D01*
G01X-645022Y-1465797D01*
G01X-631791Y-1450362D01*
G01X-621464Y-1432850D01*
G01X-614358Y-1413802D01*
G01X-610691Y-1393806D01*
G01X-610579Y-1373476D01*
G01X-614022Y-1353440D01*
G01X-620917Y-1334314D01*
G01X-631049Y-1316689D01*
G01X-644107Y-1301107D01*
G01X-659689Y-1288049D01*
G01X-677314Y-1277917D01*
G01X-696440Y-1271022D01*
G01X-716476Y-1267578D01*
G01X-736806Y-1267691D01*
G01X-756802Y-1271357D01*
G01X-775850Y-1278464D01*
G01X-793362Y-1288791D01*
G01X-808797Y-1302022D01*
G01X-821682Y-1317748D01*
G01X-831618Y-1335484D01*
G01X-838299Y-1354685D01*
G01X-1513586Y-679399D01*
G01X-1513586Y-594036D01*
G01X-1496668Y-583157D01*
G01X-1482114Y-569272D01*
G01X-1470450Y-552885D01*
G01X-1462099Y-534587D01*
G01X-1457360Y-515038D01*
G01X-1456407Y-494947D01*
G01X-1459272Y-475038D01*
G01X-1465854Y-456030D01*
G01X-1475913Y-438612D01*
G01X-1489086Y-423412D01*
G01X-1504898Y-410979D01*
G01X-1522777Y-401763D01*
G01X-1542077Y-396097D01*
G01X-1562100Y-394185D01*
G01X-1582123Y-396097D01*
G01X-1601423Y-401763D01*
G01X-1619302Y-410979D01*
G01X-1635114Y-423412D01*
G01X-1648287Y-438612D01*
G01X-1658346Y-456030D01*
G01X-1664928Y-475038D01*
G01X-1667793Y-494947D01*
G01X-1742186Y-494947D01*
G01X-1742186Y-240236D01*
G01X-1667462Y-240236D01*
G01X-1667462Y-259763D01*
G01X-1663874Y-278957D01*
G01X-1656821Y-297165D01*
G01X-1646541Y-313767D01*
G01X-1633386Y-328197D01*
G01X-1617804Y-339964D01*
G01X-1600324Y-348668D01*
G01X-1581543Y-354012D01*
G01X-1562100Y-355813D01*
G01X-1542657Y-354012D01*
G01X-1523876Y-348668D01*
G01X-1506396Y-339964D01*
G01X-1490814Y-328197D01*
G01X-1477659Y-313767D01*
G01X-1467379Y-297165D01*
G01X-1460326Y-278957D01*
G01X-1456738Y-259763D01*
G01X-1456738Y-240236D01*
G01X-1460326Y-221042D01*
G01X-1467379Y-202834D01*
G01X-1477659Y-186232D01*
G01X-1490814Y-171802D01*
G01X-1506396Y-160035D01*
G01X-1523876Y-151331D01*
G01X-1542657Y-145987D01*
G01X-1562100Y-144186D01*
G01X-1562100Y-144186D01*
G01X-1581543Y-145987D01*
G01X-1600324Y-151331D01*
G01X-1617804Y-160035D01*
G01X-1633386Y-171802D01*
G01X-1646541Y-186232D01*
G01X-1656821Y-202834D01*
G01X-1663874Y-221042D01*
G01X-1667462Y-240236D01*
G01X-1742186Y-240236D01*
G01X-1742186Y0D01*
G01X-1667914Y0D01*
G01X-1666002Y-20023D01*
G01X-1660336Y-39323D01*
G01X-1651120Y-57202D01*
G01X-1638687Y-73014D01*
G01X-1623487Y-86187D01*
G01X-1606069Y-96246D01*
G01X-1587061Y-102828D01*
G01X-1567152Y-105693D01*
G01X-1547061Y-104740D01*
G01X-1527512Y-100001D01*
G01X-1509214Y-91650D01*
G01X-1492827Y-79986D01*
G01X-1478942Y-65432D01*
G01X-1468063Y-48514D01*
G01X-1316035Y-48514D01*
G01X-882414Y-482135D01*
G01X-882414Y-919694D01*
G01X-880761Y-932250D01*
G01X-875914Y-943951D01*
G01X-868205Y-953998D01*
G01X-789836Y-1032367D01*
G01X-805737Y-1045007D01*
G01X-819186Y-1060230D01*
G01X-829768Y-1077570D01*
G01X-837158Y-1096491D01*
G01X-841128Y-1116412D01*
G01X-841556Y-1136721D01*
G01X-838430Y-1156792D01*
G01X-831845Y-1176008D01*
G01X-822004Y-1193778D01*
G01X-809209Y-1209555D01*
G01X-793855Y-1222854D01*
G01X-776413Y-1233266D01*
G01X-757420Y-1240470D01*
G01X-737461Y-1244245D01*
G01X-717149Y-1244475D01*
G01X-697110Y-1241153D01*
G01X-677959Y-1234380D01*
G01X-660286Y-1224365D01*
G01X-644635Y-1211417D01*
G01X-631486Y-1195933D01*
G01X-621246Y-1178390D01*
G01X-614228Y-1159328D01*
G01X-610648Y-1139333D01*
G01X-610617Y-1119020D01*
G01X-614136Y-1099014D01*
G01X-621095Y-1079930D01*
G01X-631282Y-1062356D01*
G01X-644383Y-1046832D01*
G01X-659995Y-1033836D01*
G01X-677637Y-1023768D01*
G01X-679865Y-1012589D01*
G01X-684639Y-1002240D01*
G01X-691695Y-993289D01*
G01X-697685Y-987299D01*
G01X-678215Y-980496D01*
G01X-660261Y-970348D01*
G01X-644391Y-957176D01*
G01X-631110Y-941398D01*
G01X-620837Y-923514D01*
G01X-433985Y-923514D01*
G01X-430249Y-938061D01*
G01X-423337Y-951394D01*
G01X-413601Y-962829D01*
G01X-401541Y-971781D01*
G01X-387777Y-977789D01*
G01X-373014Y-980546D01*
G01X-358008Y-979911D01*
G01X-343531Y-975915D01*
G01X-330324Y-968764D01*
G01X-319065Y-958824D01*
G01X-310332Y-946606D01*
G01X-304571Y-932736D01*
G01X-302080Y-917925D01*
G01X-302985Y-902934D01*
G01X-307240Y-888531D01*
G01X-314627Y-875455D01*
G01X-324767Y-864376D01*
G01X-337140Y-855863D01*
G01X-351111Y-850352D01*
G01X-365964Y-848127D01*
G01X-373395Y-840695D01*
G01X-383443Y-832986D01*
G01X-395144Y-828139D01*
G01X-407700Y-826486D01*
G01X-620837Y-826486D01*
G01X-631645Y-807844D01*
G01X-645719Y-791527D01*
G01X-662573Y-778099D01*
G01X-681622Y-768026D01*
G01X-702207Y-761657D01*
G01X-723616Y-759211D01*
G01X-745108Y-760773D01*
G01X-765938Y-766290D01*
G01X-785386Y-775571D01*
G01X-785386Y-720429D01*
G01X-767600Y-729085D01*
G01X-748600Y-734587D01*
G01X-728941Y-736777D01*
G01X-709197Y-735588D01*
G01X-689942Y-731058D01*
G01X-671739Y-723316D01*
G01X-655120Y-712590D01*
G01X-640567Y-699193D01*
G01X-628507Y-683514D01*
G01X-413510Y-683514D01*
G01X-401139Y-692612D01*
G01X-387006Y-698621D01*
G01X-371871Y-701218D01*
G01X-356544Y-700264D01*
G01X-341847Y-695810D01*
G01X-328569Y-688094D01*
G01X-317422Y-677532D01*
G01X-309003Y-664689D01*
G01X-303764Y-650253D01*
G01X-301986Y-635000D01*
G01X-303764Y-619747D01*
G01X-309003Y-605311D01*
G01X-317422Y-592468D01*
G01X-328569Y-581906D01*
G01X-341847Y-574190D01*
G01X-356544Y-569736D01*
G01X-371871Y-568782D01*
G01X-387006Y-571379D01*
G01X-401139Y-577388D01*
G01X-413510Y-586486D01*
G01X-615449Y-586486D01*
G01X-623611Y-566878D01*
G01X-635216Y-549089D01*
G01X-649875Y-533720D01*
G01X-667094Y-521286D01*
G01X-656307Y-516477D01*
G01X-647002Y-509205D01*
G01X-299311Y-161514D01*
G01X620837Y-161514D01*
G01X631251Y-179599D01*
G01X644740Y-195521D01*
G01X660868Y-208764D01*
G01X679111Y-218898D01*
G01X698876Y-225593D01*
G01X719522Y-228633D01*
G01X740379Y-227918D01*
G01X760768Y-223472D01*
G01X780028Y-215439D01*
G01X797535Y-204080D01*
G01X812718Y-189764D01*
G01X825086Y-172956D01*
G01X825086Y-301552D01*
G01X822966Y-303672D01*
G01X809993Y-287263D01*
G01X794281Y-273455D01*
G01X776340Y-262699D01*
G01X756758Y-255345D01*
G01X736172Y-251634D01*
G01X715254Y-251686D01*
G01X694687Y-255500D01*
G01X675141Y-262951D01*
G01X657254Y-273797D01*
G01X641610Y-287683D01*
G01X628719Y-304156D01*
G01X619002Y-322680D01*
G01X612775Y-342649D01*
G01X610242Y-363413D01*
G01X611485Y-384294D01*
G01X616463Y-404611D01*
G01X625016Y-423701D01*
G01X636862Y-440941D01*
G01X651616Y-455769D01*
G01X668797Y-467701D01*
G01X687844Y-476348D01*
G01X708135Y-481428D01*
G01X729010Y-482775D01*
G01X749786Y-480345D01*
G01X749786Y-507655D01*
G01X729495Y-505239D01*
G01X709094Y-506427D01*
G01X689220Y-511182D01*
G01X670492Y-519355D01*
G01X653491Y-530694D01*
G01X638747Y-544843D01*
G01X626721Y-561364D01*
G01X617785Y-579742D01*
G01X612218Y-599404D01*
G01X610193Y-619738D01*
G01X611774Y-640112D01*
G01X616911Y-659890D01*
G01X625444Y-678458D01*
G01X637108Y-695237D01*
G01X651540Y-709705D01*
G01X668289Y-721411D01*
G01X686836Y-729991D01*
G01X706601Y-735178D01*
G01X726971Y-736810D01*
G01X747310Y-734836D01*
G01X766986Y-729319D01*
G01X785386Y-720429D01*
G01X785386Y-775571D01*
G01X767282Y-766794D01*
G01X747932Y-761282D01*
G01X727921Y-759202D01*
G01X707851Y-760617D01*
G01X688329Y-765484D01*
G01X669944Y-773656D01*
G01X653251Y-784887D01*
G01X638753Y-798837D01*
G01X626888Y-815086D01*
G01X400810Y-815086D01*
G01X388439Y-805988D01*
G01X374306Y-799979D01*
G01X359171Y-797382D01*
G01X343844Y-798336D01*
G01X329147Y-802790D01*
G01X315869Y-810506D01*
G01X304722Y-821068D01*
G01X296303Y-833911D01*
G01X291064Y-848347D01*
G01X289286Y-863600D01*
G01X291064Y-878853D01*
G01X296303Y-893289D01*
G01X304722Y-906132D01*
G01X315869Y-916694D01*
G01X329147Y-924410D01*
G01X343844Y-928864D01*
G01X359171Y-929818D01*
G01X374306Y-927221D01*
G01X388439Y-921212D01*
G01X400810Y-912114D01*
G01X616294Y-912114D01*
G01X624616Y-930983D01*
G01X636152Y-948076D01*
G01X650537Y-962853D01*
G01X667314Y-974844D01*
G01X685952Y-983669D01*
G01X705860Y-989049D01*
G01X726407Y-990813D01*
G01X746941Y-988905D01*
G01X766810Y-983385D01*
G01X785386Y-974429D01*
G01X785386Y-1026405D01*
G01X783387Y-1028404D01*
G01X764695Y-1019842D01*
G01X744784Y-1014720D01*
G01X724280Y-1013199D01*
G01X703831Y-1015328D01*
G01X684080Y-1021039D01*
G01X665651Y-1030153D01*
G01X649123Y-1042381D01*
G01X635018Y-1057340D01*
G01X623781Y-1074557D01*
G01X615765Y-1093489D01*
G01X611223Y-1113541D01*
G01X610298Y-1134080D01*
G01X613019Y-1154459D01*
G01X619301Y-1174035D01*
G01X628946Y-1192192D01*
G01X641649Y-1208358D01*
G01X657010Y-1222023D01*
G01X674546Y-1232756D01*
G01X693703Y-1240219D01*
G01X713878Y-1244178D01*
G01X734435Y-1244506D01*
G01X754727Y-1241195D01*
G01X774113Y-1234347D01*
G01X791982Y-1224180D01*
G01X807773Y-1211013D01*
G01X820986Y-1195261D01*
G01X820986Y-1316739D01*
G01X807176Y-1300396D01*
G01X790594Y-1286873D01*
G01X771809Y-1276631D01*
G01X751459Y-1270019D01*
G01X730241Y-1267264D01*
G01X708878Y-1268459D01*
G01X688099Y-1273564D01*
G01X668614Y-1282403D01*
G01X651088Y-1294677D01*
G01X636118Y-1309965D01*
G01X624217Y-1327746D01*
G01X615789Y-1347413D01*
G01X611124Y-1368295D01*
G01X610379Y-1389679D01*
G01X613581Y-1410834D01*
G01X620620Y-1431040D01*
G01X631255Y-1449606D01*
G01X645125Y-1465898D01*
G01X661755Y-1479361D01*
G01X680578Y-1489535D01*
G01X700951Y-1496073D01*
G01X722180Y-1498751D01*
G01X722180Y-1521186D01*
G01X646000Y-1521186D01*
G01X634933Y-1522939D01*
G01X624949Y-1528026D01*
G01X617026Y-1535949D01*
G01X611939Y-1545933D01*
G01X610186Y-1557000D01*
G01X610186Y-1717000D01*
G01X611939Y-1728067D01*
G01X617026Y-1738051D01*
G01X624949Y-1745974D01*
G01X634933Y-1751061D01*
G01X646000Y-1752814D01*
G01X806000Y-1752814D01*
G01X817067Y-1751061D01*
G01X827051Y-1745974D01*
G01X834974Y-1738051D01*
G01X840061Y-1728067D01*
G01X841814Y-1717000D01*
G01X841814Y-1655000D01*
G01X1367186Y-1655000D01*
G01X1369166Y-1680157D01*
G01X1375057Y-1704694D01*
G01X1384714Y-1728008D01*
G01X1397899Y-1749524D01*
G01X1414287Y-1768713D01*
G01X1433476Y-1785101D01*
G01X1454992Y-1798286D01*
G01X1478306Y-1807943D01*
G01X1502843Y-1813834D01*
G01X1528000Y-1815814D01*
G01X1553157Y-1813834D01*
G01X1577694Y-1807943D01*
G01X1601008Y-1798286D01*
G01X1622524Y-1785101D01*
G01X1641713Y-1768713D01*
G01X1658101Y-1749524D01*
G01X1671286Y-1728008D01*
G01X1680943Y-1704694D01*
G01X1686834Y-1680157D01*
G01X1688814Y-1655000D01*
G01X1686834Y-1629843D01*
G01X1680943Y-1605306D01*
G01X1671286Y-1581992D01*
G01X1658101Y-1560476D01*
G01X1641713Y-1541287D01*
G01X1622524Y-1524899D01*
G01X1601008Y-1511714D01*
G01X1577694Y-1502057D01*
G01X1553157Y-1496166D01*
G01X1528000Y-1494186D01*
G01X1502843Y-1496166D01*
G01X1478306Y-1502057D01*
G01X1454992Y-1511714D01*
G01X1433476Y-1524899D01*
G01X1414287Y-1541287D01*
G01X1397899Y-1560476D01*
G01X1384714Y-1581992D01*
G01X1375057Y-1605306D01*
G01X1369166Y-1629843D01*
G01X1367186Y-1655000D01*
G01X1367186Y-1655000D01*
G01X841814Y-1655000D01*
G01X841814Y-1557000D01*
G01X840233Y-1546476D01*
G01X835628Y-1536880D01*
G01X828407Y-1529062D01*
G01X819208Y-1523711D01*
G01X819208Y-1510995D01*
G01X939404Y-1390798D01*
G01X947114Y-1380751D01*
G01X951961Y-1369050D01*
G01X953614Y-1356494D01*
G01X953614Y-511627D01*
G01X1050305Y-414936D01*
G01X1058014Y-404888D01*
G01X1062861Y-393188D01*
G01X1064514Y-380631D01*
G01X1064514Y1405000D01*
G01X1367186Y1405000D01*
G01X1369166Y1379843D01*
G01X1375057Y1355306D01*
G01X1384714Y1331992D01*
G01X1397899Y1310476D01*
G01X1414287Y1291287D01*
G01X1433476Y1274899D01*
G01X1454992Y1261714D01*
G01X1478306Y1252057D01*
G01X1502843Y1246166D01*
G01X1528000Y1244186D01*
G01X1553157Y1246166D01*
G01X1577694Y1252057D01*
G01X1601008Y1261714D01*
G01X1622524Y1274899D01*
G01X1641713Y1291287D01*
G01X1658101Y1310476D01*
G01X1671286Y1331992D01*
G01X1680943Y1355306D01*
G01X1686834Y1379843D01*
G01X1688814Y1405000D01*
G01X1686834Y1430157D01*
G01X1680943Y1454694D01*
G01X1671286Y1478008D01*
G01X1658101Y1499524D01*
G01X1641713Y1518713D01*
G01X1622524Y1535101D01*
G01X1601008Y1548286D01*
G01X1577694Y1557943D01*
G01X1553157Y1563834D01*
G01X1528000Y1565814D01*
G01X1502843Y1563834D01*
G01X1478306Y1557943D01*
G01X1454992Y1548286D01*
G01X1433476Y1535101D01*
G01X1414287Y1518713D01*
G01X1397899Y1499524D01*
G01X1384714Y1478008D01*
G01X1375057Y1454694D01*
G01X1369166Y1430157D01*
G01X1367186Y1405000D01*
G01X1367186Y1405000D01*
G01X1064514Y1405000D01*
G01X1064514Y1534186D01*
G01X1101000Y1534186D01*
G01X1112067Y1535939D01*
G01X1122051Y1541026D01*
G01X1129974Y1548949D01*
G01X1135061Y1558933D01*
G01X1136814Y1570000D01*
G01X1136814Y1740000D01*
G01X1135061Y1751067D01*
G01X1129974Y1761051D01*
G01X1122051Y1768974D01*
G01X1112067Y1774061D01*
G01X1101000Y1775814D01*
G01X931000Y1775814D01*
G01X919933Y1774061D01*
G01X909949Y1768974D01*
G01X902026Y1761051D01*
G01X896939Y1751067D01*
G01X895186Y1740000D01*
G01X895186Y1570000D01*
G01X896939Y1558933D01*
G01X902026Y1548949D01*
G01X909949Y1541026D01*
G01X919933Y1535939D01*
G01X931000Y1534186D01*
G01X967486Y1534186D01*
G01X967486Y1323623D01*
G01X823214Y1467895D01*
G01X823214Y1550842D01*
G01X841027Y1563618D01*
G01X856239Y1579403D01*
G01X868348Y1597676D01*
G01X876956Y1617836D01*
G01X881779Y1639220D01*
G01X882659Y1661124D01*
G01X879566Y1682826D01*
G01X872602Y1703612D01*
G01X861997Y1722797D01*
G01X848101Y1739751D01*
G01X831369Y1753914D01*
G01X812353Y1764820D01*
G01X791680Y1772111D01*
G01X770030Y1775547D01*
G01X748115Y1775013D01*
G01X726657Y1770529D01*
G01X706363Y1762241D01*
G01X687901Y1750422D01*
G01X671878Y1735461D01*
G01X658822Y1717852D01*
G01X649164Y1698173D01*
G01X643220Y1677073D01*
G01X641186Y1655247D01*
G01X643131Y1633412D01*
G01X648988Y1612288D01*
G01X658567Y1592570D01*
G01X671550Y1574907D01*
G01X687512Y1559882D01*
G01X705926Y1547987D01*
G01X726186Y1539617D01*
G01X726186Y1505423D01*
G01X620543Y1611067D01*
G01X626633Y1632149D01*
G01X628810Y1653986D01*
G01X627000Y1675856D01*
G01X621264Y1697038D01*
G01X611792Y1716833D01*
G01X598895Y1734587D01*
G01X582999Y1749716D01*
G01X564628Y1761720D01*
G01X544389Y1770203D01*
G01X522950Y1774885D01*
G01X501017Y1775612D01*
G01X479315Y1772359D01*
G01X458559Y1765234D01*
G01X439434Y1754472D01*
G01X422572Y1740428D01*
G01X408528Y1723566D01*
G01X397766Y1704441D01*
G01X390641Y1683685D01*
G01X387388Y1661983D01*
G01X388115Y1640050D01*
G01X392797Y1618611D01*
G01X401280Y1598372D01*
G01X413284Y1580001D01*
G01X428413Y1564105D01*
G01X446167Y1551208D01*
G01X465962Y1541736D01*
G01X487144Y1536000D01*
G01X509014Y1534190D01*
G01X530851Y1536367D01*
G01X551933Y1542457D01*
G01X725199Y1369192D01*
G01X721487Y1353482D01*
G01X721680Y1337341D01*
G01X725768Y1321724D01*
G01X733508Y1307558D01*
G01X744441Y1295682D01*
G01X757919Y1286799D01*
G01X773145Y1281436D01*
G01X789215Y1279911D01*
G01X805177Y1282313D01*
G01X820087Y1288501D01*
G01X833059Y1298108D01*
G01X843326Y1310565D01*
G01X931886Y1222005D01*
G01X931886Y1053969D01*
G01X368725Y1617129D01*
G01X373682Y1638502D01*
G01X374692Y1660418D01*
G01X371722Y1682156D01*
G01X364870Y1702998D01*
G01X354361Y1722258D01*
G01X340543Y1739299D01*
G01X323870Y1753560D01*
G01X304893Y1764571D01*
G01X284238Y1771969D01*
G01X262586Y1775508D01*
G01X240650Y1775074D01*
G01X219155Y1770680D01*
G01X198809Y1762471D01*
G01X180283Y1750717D01*
G01X164188Y1735807D01*
G01X151055Y1718232D01*
G01X141317Y1698572D01*
G01X135295Y1677474D01*
G01X133188Y1655636D01*
G01X135065Y1633777D01*
G01X140864Y1612617D01*
G01X150395Y1592855D01*
G01X163342Y1575143D01*
G01X179279Y1560064D01*
G01X197680Y1548117D01*
G01X217939Y1539694D01*
G01X239387Y1535073D01*
G01X261316Y1534408D01*
G01X283005Y1537720D01*
G01X303737Y1544899D01*
G01X441222Y1407414D01*
G01X185195Y1407414D01*
G01X48514Y1544095D01*
G01X48514Y1544355D01*
G01X67728Y1554956D01*
G01X84708Y1568858D01*
G01X98893Y1585601D01*
G01X109815Y1604635D01*
G01X117114Y1625330D01*
G01X120549Y1647005D01*
G01X120007Y1668943D01*
G01X115505Y1690421D01*
G01X107192Y1710730D01*
G01X95343Y1729201D01*
G01X80348Y1745223D01*
G01X62702Y1758269D01*
G01X42987Y1767907D01*
G01X21854Y1773821D01*
G01X0Y1775814D01*
G01X-21854Y1773821D01*
G01X-42987Y1767907D01*
G01X-62702Y1758269D01*
G01X-80348Y1745223D01*
G01X-95343Y1729201D01*
G01X-107192Y1710730D01*
G01X-115505Y1690421D01*
G01X-120007Y1668943D01*
G01X-120549Y1647005D01*
G01X-117114Y1625330D01*
G01X-109815Y1604635D01*
G01X-98893Y1585601D01*
G01X-84708Y1568858D01*
G01X-67728Y1554956D01*
G01X-48514Y1544355D01*
G01X-48514Y1524000D01*
G01X-46861Y1511444D01*
G01X-42014Y1499743D01*
G01X-34305Y1489695D01*
G01X98777Y1356614D01*
G01X-92790Y1356614D01*
G01X-105346Y1354961D01*
G01X-117047Y1350114D01*
G01X-127095Y1342405D01*
G01X-205486Y1264013D01*
G01X-205486Y1544355D01*
G01X-186272Y1554956D01*
G01X-169292Y1568858D01*
G01X-155107Y1585601D01*
G01X-144185Y1604635D01*
G01X-136886Y1625330D01*
G01X-133451Y1647005D01*
G01X-133993Y1668943D01*
G01X-138495Y1690421D01*
G01X-146808Y1710730D01*
G01X-158657Y1729201D01*
G01X-173652Y1745223D01*
G01X-191298Y1758269D01*
G01X-211013Y1767907D01*
G01X-232146Y1773821D01*
G01X-254000Y1775814D01*
G01X-275854Y1773821D01*
G01X-296987Y1767907D01*
G01X-316702Y1758269D01*
G01X-334348Y1745223D01*
G01X-349343Y1729201D01*
G01X-361192Y1710730D01*
G01X-369505Y1690421D01*
G01X-374007Y1668943D01*
G01X-374549Y1647005D01*
G01X-371114Y1625330D01*
G01X-363815Y1604635D01*
G01X-352893Y1585601D01*
G01X-338708Y1568858D01*
G01X-321728Y1554956D01*
G01X-302514Y1544355D01*
G01X-302514Y1226310D01*
G01X-311376Y1214350D01*
G01X-317347Y1200714D01*
G01X-320126Y1186089D01*
G01X-319573Y1171214D01*
G01X-442427Y1171214D01*
G01X-441874Y1186089D01*
G01X-444653Y1200714D01*
G01X-450624Y1214350D01*
G01X-459486Y1226310D01*
G01X-459486Y1544355D01*
G01X-440272Y1554956D01*
G01X-423292Y1568858D01*
G01X-409107Y1585601D01*
G01X-398185Y1604635D01*
G01X-390886Y1625330D01*
G01X-387451Y1647005D01*
G01X-387993Y1668943D01*
G01X-392495Y1690421D01*
G01X-400808Y1710730D01*
G01X-412657Y1729201D01*
G01X-427652Y1745223D01*
G01X-445298Y1758269D01*
G01X-465013Y1767907D01*
G01X-486146Y1773821D01*
G01X-508000Y1775814D01*
G01X-529854Y1773821D01*
G01X-550987Y1767907D01*
G01X-570702Y1758269D01*
G01X-588348Y1745223D01*
G01X-603343Y1729201D01*
G01X-615192Y1710730D01*
G01X-623505Y1690421D01*
G01X-628007Y1668943D01*
G01X-628549Y1647005D01*
G01X-625114Y1625330D01*
G01X-617815Y1604635D01*
G01X-606893Y1585601D01*
G01X-592708Y1568858D01*
G01X-575728Y1554956D01*
G01X-556514Y1544355D01*
G01X-556514Y1518123D01*
G01X-649457Y1611067D01*
G01X-643367Y1632149D01*
G01X-641190Y1653986D01*
G01X-643000Y1675856D01*
G01X-648736Y1697038D01*
G01X-658208Y1716833D01*
G01X-671105Y1734587D01*
G01X-687001Y1749716D01*
G01X-705372Y1761720D01*
G01X-725611Y1770203D01*
G01X-747050Y1774885D01*
G01X-768983Y1775612D01*
G01X-790685Y1772359D01*
G01X-811441Y1765234D01*
G01X-830566Y1754472D01*
G01X-847428Y1740428D01*
G01X-861472Y1723566D01*
G01X-872234Y1704441D01*
G01X-879359Y1683685D01*
G01X-882612Y1661983D01*
G01X-881885Y1640050D01*
G01X-877203Y1618611D01*
G01X-868720Y1598372D01*
G01X-856716Y1580001D01*
G01X-841587Y1564105D01*
G01X-823833Y1551208D01*
G01X-804038Y1541736D01*
G01X-782856Y1536000D01*
G01X-760986Y1534190D01*
G01X-739149Y1536367D01*
G01X-718067Y1542457D01*
G01X-614914Y1439305D01*
G01X-614914Y1156910D01*
G01X-613261Y1144354D01*
G01X-608415Y1132653D01*
G01X-600705Y1122605D01*
G01X-566495Y1088395D01*
G01X-556447Y1080685D01*
G01X-544746Y1075839D01*
G01X-532190Y1074186D01*
G01X-229810Y1074186D01*
G01X-217254Y1075839D01*
G01X-205553Y1080685D01*
G01X-195505Y1088395D01*
G01X-161295Y1122605D01*
G01X-153585Y1132653D01*
G01X-148739Y1144354D01*
G01X-147086Y1156910D01*
G01X-147086Y1185195D01*
G01X-72695Y1259586D01*
G01X488358Y1259586D01*
G01X825086Y922858D01*
G01X825086Y-53044D01*
G01X812718Y-36236D01*
G01X797535Y-21920D01*
G01X780028Y-10561D01*
G01X760768Y-2528D01*
G01X740379Y1918D01*
G01X719522Y2633D01*
G01X698876Y-407D01*
G01X679111Y-7103D01*
G01X660868Y-17236D01*
G01X644740Y-30479D01*
G01X631251Y-46401D01*
G01X620837Y-64486D01*
G01X-319406Y-64486D01*
G01X-331963Y-66139D01*
G01X-343663Y-70986D01*
G01X-353711Y-78695D01*
G01X-613701Y-338685D01*
G01X-620676Y-318838D01*
G01X-631126Y-300579D01*
G01X-644706Y-284513D01*
G01X-660969Y-271168D01*
G01X-679378Y-260985D01*
G01X-699325Y-254300D01*
G01X-720152Y-251334D01*
G01X-741172Y-252184D01*
G01X-761691Y-256823D01*
G01X-781033Y-265097D01*
G01X-798559Y-276734D01*
G01X-813691Y-291349D01*
G01X-1072040Y-33000D01*
G01X-841814Y-33000D01*
G01X-841814Y-193000D01*
G01X-840061Y-204067D01*
G01X-834974Y-214051D01*
G01X-827051Y-221974D01*
G01X-817067Y-227061D01*
G01X-806000Y-228814D01*
G01X-646000Y-228814D01*
G01X-634933Y-227061D01*
G01X-624949Y-221974D01*
G01X-617026Y-214051D01*
G01X-611939Y-204067D01*
G01X-610186Y-193000D01*
G01X-610186Y-33000D01*
G01X-611939Y-21933D01*
G01X-617026Y-11949D01*
G01X-624949Y-4026D01*
G01X-634933Y1061D01*
G01X-646000Y2814D01*
G01X-675386Y2814D01*
G01X-675386Y81790D01*
G01X-666288Y94161D01*
G01X-660279Y108294D01*
G01X-657682Y123429D01*
G01X-658636Y138756D01*
G01X-663090Y153453D01*
G01X-670806Y166731D01*
G01X-681368Y177878D01*
G01X-694211Y186297D01*
G01X-708647Y191536D01*
G01X-723900Y193314D01*
G01X-739153Y191536D01*
G01X-753589Y186297D01*
G01X-766432Y177878D01*
G01X-776994Y166731D01*
G01X-784710Y153453D01*
G01X-789164Y138756D01*
G01X-790118Y123429D01*
G01X-787521Y108294D01*
G01X-781512Y94161D01*
G01X-772414Y81790D01*
G01X-772414Y2814D01*
G01X-806000Y2814D01*
G01X-806000Y2814D01*
G01X-817067Y1061D01*
G01X-827051Y-4026D01*
G01X-834974Y-11949D01*
G01X-840061Y-21933D01*
G01X-841814Y-33000D01*
G01X-1072040Y-33000D01*
G01X-1511894Y406854D01*
G01X-1495228Y417994D01*
G01X-1480963Y432078D01*
G01X-1469609Y448599D01*
G01X-1461575Y466965D01*
G01X-1457149Y486517D01*
G01X-1456489Y506552D01*
G01X-1459620Y526352D01*
G01X-1466430Y545207D01*
G01X-1476672Y562439D01*
G01X-1489981Y577429D01*
G01X-1505879Y589641D01*
G01X-1523794Y598636D01*
G01X-1543084Y604090D01*
G01X-1563056Y605809D01*
G01X-1582995Y603729D01*
G01X-1602183Y597927D01*
G01X-1619932Y588610D01*
G01X-1635607Y576113D01*
G01X-1648642Y560884D01*
G01X-1658572Y543470D01*
G01X-1665039Y524496D01*
G01X-1667812Y504642D01*
G01X-1666791Y484622D01*
G01X-1662012Y465153D01*
G01X-1653647Y446936D01*
G01X-1641996Y430622D01*
G01X-1627478Y416799D01*
G01X-1610614Y405962D01*
G01X-1610614Y388451D01*
G01X-1608961Y375895D01*
G01X-1604114Y364194D01*
G01X-1596405Y354146D01*
G01X-1593351Y351093D01*
G01X-1611007Y343833D01*
G01X-1627070Y333518D01*
G01X-1641019Y320486D01*
G01X-1652400Y305159D01*
G01X-1660841Y288036D01*
G01X-1666068Y269676D01*
G01X-1667912Y250675D01*
G01X-1666311Y231653D01*
G01X-1661319Y213227D01*
G01X-1653097Y195998D01*
G01X-1641913Y180527D01*
G01X-1628132Y167317D01*
G01X-1612202Y156799D01*
G01X-1594640Y149313D01*
G01X-1576020Y145105D01*
G01X-1556946Y144311D01*
G01X-1538041Y146957D01*
G01X-1519918Y152957D01*
G01X-1503168Y162115D01*
G01X-1488337Y174134D01*
G01X-1362717Y48514D01*
G01X-1362717Y48514D01*
G01X-1468063Y48514D01*
G01X-1478942Y65432D01*
G01X-1492827Y79986D01*
G01X-1509214Y91650D01*
G01X-1527512Y100001D01*
G01X-1547061Y104740D01*
G01X-1567152Y105693D01*
G01X-1587061Y102828D01*
G01X-1606069Y96246D01*
G01X-1623487Y86187D01*
G01X-1638687Y73014D01*
G01X-1651120Y57202D01*
G01X-1660336Y39323D01*
G01X-1666002Y20023D01*
G01X-1667914Y0D01*
G01X-1742186Y0D01*
G01X-1742186Y1405000D01*
G01X-1688814Y1405000D01*
G01X-1686834Y1379843D01*
G01X-1680943Y1355306D01*
G01X-1671286Y1331992D01*
G01X-1658101Y1310476D01*
G01X-1641713Y1291287D01*
G01X-1622524Y1274899D01*
G01X-1601008Y1261714D01*
G01X-1577694Y1252057D01*
G01X-1553157Y1246166D01*
G01X-1528000Y1244186D01*
G01X-1502843Y1246166D01*
G01X-1478306Y1252057D01*
G01X-1454992Y1261714D01*
G01X-1433476Y1274899D01*
G01X-1414287Y1291287D01*
G01X-1397899Y1310476D01*
G01X-1384714Y1331992D01*
G01X-1375057Y1355306D01*
G01X-1369166Y1379843D01*
G01X-1367186Y1405000D01*
G01X-1369166Y1430157D01*
G01X-1375057Y1454694D01*
G01X-1384714Y1478008D01*
G01X-1397899Y1499524D01*
G01X-1414287Y1518713D01*
G01X-1433476Y1535101D01*
G01X-1454992Y1548286D01*
G01X-1478306Y1557943D01*
G01X-1502843Y1563834D01*
G01X-1528000Y1565814D01*
G01X-1553157Y1563834D01*
G01X-1577694Y1557943D01*
G01X-1601008Y1548286D01*
G01X-1622524Y1535101D01*
G01X-1641713Y1518713D01*
G01X-1658101Y1499524D01*
G01X-1671286Y1478008D01*
G01X-1680943Y1454694D01*
G01X-1686834Y1430157D01*
G01X-1688814Y1405000D01*
G01X-1688814Y1405000D01*
G01X-1742186Y1405000D01*
G01X-1742186Y1647005D01*
G01X-1136549Y1647005D01*
G01X-1133114Y1625330D01*
G01X-1125815Y1604635D01*
G01X-1114893Y1585601D01*
G01X-1100708Y1568858D01*
G01X-1083728Y1554956D01*
G01X-1064514Y1544355D01*
G01X-1064514Y1188210D01*
G01X-1064514Y1188210D01*
G01X-1073612Y1175839D01*
G01X-1079621Y1161706D01*
G01X-1082218Y1146571D01*
G01X-1081264Y1131244D01*
G01X-1076810Y1116547D01*
G01X-1069094Y1103269D01*
G01X-1058532Y1092122D01*
G01X-1045689Y1083703D01*
G01X-1031253Y1078464D01*
G01X-1016000Y1076686D01*
G01X-1000747Y1078464D01*
G01X-986311Y1083703D01*
G01X-973468Y1092122D01*
G01X-962906Y1103269D01*
G01X-955190Y1116547D01*
G01X-950736Y1131244D01*
G01X-949782Y1146571D01*
G01X-952379Y1161706D01*
G01X-958388Y1175839D01*
G01X-967486Y1188210D01*
G01X-967486Y1544355D01*
G01X-948272Y1554956D01*
G01X-931292Y1568858D01*
G01X-917107Y1585601D01*
G01X-906185Y1604635D01*
G01X-898886Y1625330D01*
G01X-895451Y1647005D01*
G01X-895993Y1668943D01*
G01X-900495Y1690421D01*
G01X-908808Y1710730D01*
G01X-920657Y1729201D01*
G01X-935652Y1745223D01*
G01X-953298Y1758269D01*
G01X-973013Y1767907D01*
G01X-994146Y1773821D01*
G01X-1016000Y1775814D01*
G01X-1037854Y1773821D01*
G01X-1058987Y1767907D01*
G01X-1078702Y1758269D01*
G01X-1096348Y1745223D01*
G01X-1111343Y1729201D01*
G01X-1123192Y1710730D01*
G01X-1131505Y1690421D01*
G01X-1136007Y1668943D01*
G01X-1136549Y1647005D01*
G01X-1742186Y1647005D01*
G01X-1742186Y1805000D01*
G37*
G54D10*
G01X-1742186Y1805000D02*
G02X-1678000Y1869186I64186J0D01*
G01X1678000Y1869186D01*
G02X1742186Y1805000I0J-64186D01*
G01X1742186Y-1805000D01*
G02X1678000Y-1869186I-64186J0D01*
G01X-1678000Y-1869186D01*
G02X-1742186Y-1805000I0J64186D01*
G01X-1742186Y1805000D01*
G01X-1688814Y1405000D02*
G03X-1367186Y1405000I160814J0D01*
G03X-1688814Y1405000I-160814J0D01*
G01X-1688814Y-1655000D02*
G03X-1367186Y-1655000I160814J0D01*
G03X-1688814Y-1655000I-160814J0D01*
G01X-789836Y-1540367D02*
G03X-717149Y-1752475I63835J-96633D01*
G03X-677637Y-1531768I-8851J115475D01*
G03X-691695Y-1501289I-48363J-3826D01*
G01X-697685Y-1495299D01*
G03X-644107Y-1301107I-28315J112299D01*
G03X-838299Y-1354685I-81893J-81893D01*
G01X-1513586Y-679399D01*
G01X-1513586Y-594036D01*
G03X-1562100Y-394185I-48514J94037D01*
G03X-1610614Y-594036I0J-105814D01*
G01X-1610614Y-699494D01*
G03X-1596405Y-733798I48514J0D01*
G01X-789836Y-1540367D01*
G01X-1362717Y48514D02*
G01X-1468063Y48514D01*
G03X-1667914Y0I-94037J-48514D01*
G03X-1468063Y-48514I105814J0D01*
G01X-1316035Y-48514D01*
G01X-882414Y-482135D01*
G01X-882414Y-919694D01*
G03X-868205Y-953998I48514J0D01*
G01X-789836Y-1032367D01*
G03X-717149Y-1244475I63835J-96633D01*
G03X-677637Y-1023768I-8851J115475D01*
G03X-691695Y-993289I-48363J-3826D01*
G01X-697685Y-987299D01*
G03X-620837Y-923514I-28315J112299D01*
G01X-433985Y-923514D01*
G03X-319065Y-958824I65685J9114D01*
G03X-365964Y-848127I-49235J44424D01*
G01X-373395Y-840695D01*
G03X-407700Y-826486I-34305J-34305D01*
G01X-620837Y-826486D01*
G03X-785386Y-775571I-105163J-48514D01*
G01X-785386Y-720429D01*
G03X-628507Y-683514I59386J99429D01*
G01X-413510Y-683514D01*
G03X-301986Y-635000I45210J48514D01*
G03X-413510Y-586486I-66314J0D01*
G01X-615449Y-586486D01*
G03X-667094Y-521286I-110551J-34514D01*
G03X-647002Y-509205I-14212J46386D01*
G01X-299311Y-161514D01*
G01X620837Y-161514D01*
G03X825086Y-172956I105163J48514D01*
G01X825086Y-301552D01*
G01X822966Y-303672D01*
G03X619002Y-322680I-96966J-63328D01*
G03X749786Y-480345I106998J-44320D01*
G01X749786Y-507655D01*
G03X611774Y-640112I-23786J-113345D01*
G03X785386Y-720429I114226J19112D01*
G01X785386Y-775571D01*
G03X626888Y-815086I-59386J-99429D01*
G01X400810Y-815086D01*
G03X289286Y-863600I-45210J-48514D01*
G03X400810Y-912114I66314J0D01*
G01X616294Y-912114D01*
G03X785386Y-974429I109706J37114D01*
G01X785386Y-1026405D01*
G01X783387Y-1028404D01*
G03X613019Y-1154459I-57387J-100596D01*
G03X820986Y-1195261I112981J25459D01*
G01X820986Y-1316739D01*
G03X624217Y-1327746I-94986J-66261D01*
G03X722180Y-1498751I101783J-55254D01*
G01X722180Y-1521186D01*
G01X646000Y-1521186D01*
G03X610186Y-1557000I0J-35814D01*
G01X610186Y-1717000D01*
G03X646000Y-1752814I35814J0D01*
G01X806000Y-1752814D01*
G03X841814Y-1717000I0J35814D01*
G01X841814Y-1557000D01*
G03X819208Y-1523711I-35814J0D01*
G01X819208Y-1510995D01*
G01X939404Y-1390798D01*
G03X953614Y-1356494I-34305J34305D01*
G01X953614Y-511627D01*
G01X1050305Y-414936D01*
G03X1064514Y-380631I-34305J34305D01*
G01X1064514Y1534186D01*
G01X1101000Y1534186D01*
G03X1136814Y1570000I0J35814D01*
G01X1136814Y1740000D01*
G03X1101000Y1775814I-35814J0D01*
G01X931000Y1775814D01*
G03X895186Y1740000I0J-35814D01*
G01X895186Y1570000D01*
G03X931000Y1534186I35814J0D01*
G01X967486Y1534186D01*
G01X967486Y1323623D01*
G01X823214Y1467895D01*
G01X823214Y1550842D01*
G03X748115Y1775013I-61214J104158D01*
G03X726186Y1539617I13885J-120013D01*
G01X726186Y1505423D01*
G01X620543Y1611067D01*
G03X422572Y1740428I-112543J43933D01*
G03X551933Y1542457I85428J-85428D01*
G01X725199Y1369192D01*
G03X757919Y1286799I62201J-22992D01*
G03X843326Y1310565I29481J59401D01*
G01X931886Y1222005D01*
G01X931886Y1053969D01*
G01X368725Y1617129D01*
G03X164188Y1735807I-114725J37871D01*
G03X303737Y1544899I89812J-80807D01*
G01X441222Y1407414D01*
G01X185195Y1407414D01*
G01X48514Y1544095D01*
G01X48514Y1544355D01*
G03X0Y1775814I-48514J110645D01*
G03X-48514Y1544355I0J-120814D01*
G01X-48514Y1524000D01*
G03X-34305Y1489695I48514J0D01*
G01X98777Y1356614D01*
G01X-92790Y1356614D01*
G03X-127095Y1342405I0J-48514D01*
G01X-205486Y1264013D01*
G01X-205486Y1544355D01*
G03X-254000Y1775814I-48514J110645D01*
G03X-302514Y1544355I0J-120814D01*
G01X-302514Y1226310D01*
G03X-319573Y1171214I48514J-45210D01*
G01X-442427Y1171214D01*
G03X-459486Y1226310I-65573J9886D01*
G01X-459486Y1544355D01*
G03X-508000Y1775814I-48514J110645D01*
G03X-556514Y1544355I0J-120814D01*
G01X-556514Y1518123D01*
G01X-649457Y1611067D01*
G03X-847428Y1740428I-112543J43933D01*
G03X-718067Y1542457I85428J-85428D01*
G01X-614914Y1439305D01*
G01X-614914Y1156910D01*
G03X-600705Y1122605I48514J0D01*
G01X-566495Y1088395D01*
G03X-532190Y1074186I34305J34305D01*
G01X-229810Y1074186D01*
G03X-195505Y1088395I0J48514D01*
G01X-161295Y1122605D01*
G03X-147086Y1156910I-34305J34305D01*
G01X-147086Y1185195D01*
G01X-72695Y1259586D01*
G01X488358Y1259586D01*
G01X825086Y922858D01*
G01X825086Y-53044D01*
G03X620837Y-64486I-99086J-59956D01*
G01X-319406Y-64486D01*
G03X-353711Y-78695I0J-48514D01*
G01X-613701Y-338685D01*
G03X-813691Y-291349I-112299J-28315D01*
G01X-1511894Y406854D01*
G03X-1563056Y605809I-50206J93145D01*
G03X-1610614Y405962I956J-105810D01*
G01X-1610614Y388451D01*
G03X-1596405Y354146I48514J0D01*
G01X-1593351Y351093D01*
G03X-1653097Y195998I31251J-101094D01*
G03X-1488337Y174134I90997J54001D01*
G01X-1362717Y48514D01*
G01X-1562100Y-144186D02*
G03X-1562100Y-355813I0J-105814D01*
G03X-1562100Y-144186I0J105814D01*
G01X-1064514Y1188210D02*
G03X-1016000Y1076686I48514J-45210D01*
G03X-967486Y1188210I0J66314D01*
G01X-967486Y1544355D01*
G03X-1016000Y1775814I-48514J110645D01*
G03X-1064514Y1544355I0J-120814D01*
G01X-1064514Y1188210D01*
G01X-806000Y2814D02*
G03X-841814Y-33000I0J-35814D01*
G01X-841814Y-193000D01*
G03X-806000Y-228814I35814J0D01*
G01X-646000Y-228814D01*
G03X-610186Y-193000I0J35814D01*
G01X-610186Y-33000D01*
G03X-646000Y2814I-35814J0D01*
G01X-675386Y2814D01*
G01X-675386Y81790D01*
G03X-723900Y193314I-48514J45210D01*
G03X-772414Y81790I0J-66314D01*
G01X-772414Y2814D01*
G01X-806000Y2814D01*
G01X1367186Y1405000D02*
G03X1688814Y1405000I160814J0D01*
G03X1367186Y1405000I-160814J0D01*
G01X1367186Y-1655000D02*
G03X1688814Y-1655000I160814J0D01*
G03X1367186Y-1655000I-160814J0D01*
G54D11*
G01X-1562100Y-180254D02*
G01X-1562100Y-154346D01*
G01X-1562100Y-319745D02*
G01X-1562100Y-345653D01*
G01X-1492354Y-249999D02*
G01X-1466446Y-249999D01*
G01X-1631846Y-249999D02*
G01X-1657754Y-249999D01*
G01X-726000Y-1303254D02*
G01X-726000Y-1277346D01*
G01X-646254Y-1383000D02*
G01X-620346Y-1383000D01*
G04 Copper End*

G04 Pad Start*
G54D12*
G01X-1528000Y1405000D03*
G01X1528000Y1405000D03*
G01X-1528000Y-1655000D03*
G01X1528000Y-1655000D03*
G54D13*
G01X-1562100Y499999D03*
G01X-1562100Y250000D03*
G01X-1562100Y0D03*
G01X-1562100Y-249999D03*
G01X-1562100Y-499999D03*
G54D14*
G01X-726000Y-113000D03*
G54D15*
G01X-726000Y-367000D03*
G01X-726000Y-621000D03*
G01X-726000Y-875000D03*
G01X-726000Y-1129000D03*
G01X-726000Y-1383000D03*
G01X-726000Y-1637000D03*
G54D14*
G01X726000Y-1637000D03*
G54D15*
G01X726000Y-1383000D03*
G01X726000Y-1129000D03*
G01X726000Y-875000D03*
G01X726000Y-621000D03*
G01X726000Y-367000D03*
G01X726000Y-113000D03*
G54D17*
G01X1016000Y1655000D03*
G54D18*
G01X762000Y1655000D03*
G01X508000Y1655000D03*
G01X254000Y1655000D03*
G01X0Y1655000D03*
G01X-254000Y1655000D03*
G01X-508000Y1655000D03*
G01X-762000Y1655000D03*
G01X-1016000Y1655000D03*
G04 Pad End*

G04 Via Start*
G54D19*
G01X-254000Y1181100D03*
G01X-723900Y127000D03*
G01X-508000Y1181100D03*
G01X355600Y-863600D03*
G01X787400Y1346200D03*
G01X-368300Y-635000D03*
G01X-1016000Y1143000D03*
G01X-368300Y-914400D03*
G01X-1193800Y-673100D03*
G04 Via End*

G04 Track Start*
G54D11*
G01X-254000Y1655000D02*
G01X-254000Y1181100D01*
G01X-723900Y127000D02*
G01X-723900Y-110900D01*
G01X-726000Y-113000D01*
G01X-508000Y1655000D02*
G01X-508000Y1181100D01*
G01X355600Y-863600D02*
G01X714600Y-863600D01*
G01X726000Y-875000D01*
G01X508000Y1655000D02*
G01X787400Y1375600D01*
G01X787400Y1346200D01*
G01X-368300Y-635000D02*
G01X-712000Y-635000D01*
G01X-726000Y-621000D01*
G01X-726000Y-1129000D02*
G01X-726000Y-1027594D01*
G01X-833900Y-919694D01*
G01X-726000Y-1383000D02*
G01X-726000Y-1281594D01*
G01X-833900Y-1173694D01*
G01X-833900Y-978199D01*
G01X-1562100Y-249999D01*
G01X-726000Y-1637000D02*
G01X-726000Y-1535594D01*
G01X-319407Y-113000D02*
G01X726000Y-113000D01*
G01X-681306Y-474900D02*
G01X-319407Y-113000D01*
G01X-770694Y-474900D02*
G01X-681306Y-474900D01*
G01X-1016000Y1655000D02*
G01X-1016000Y1143000D01*
G01X-368300Y-914400D02*
G01X-407700Y-875000D01*
G01X-726000Y-875000D01*
G01X-1562100Y250000D02*
G01X-1495593Y250000D01*
G01X-770694Y-474900D01*
G01X-833900Y-919694D02*
G01X-833900Y-462039D01*
G01X-1295939Y0D01*
G01X-1562100Y0D01*
G01X-726000Y-367000D02*
G01X-806649Y-367000D01*
G01X-1562100Y388451D01*
G01X-1562100Y499999D01*
G01X-1562100Y-699494D02*
G01X-1562100Y-499999D01*
G01X-1562100Y-699494D02*
G01X-726000Y-1535594D01*
G01X726000Y-1637000D02*
G01X770694Y-1592306D01*
G01X770694Y-1490900D01*
G01X905100Y-1356494D01*
G01X905100Y-491531D01*
G01X1016000Y-380631D01*
G01X1016000Y1655001D01*
G01X826800Y-1383000D02*
G01X726001Y-1383000D01*
G01X869500Y-1340300D02*
G01X826800Y-1383000D01*
G01X762000Y1655001D02*
G01X774700Y1642301D01*
G01X869500Y-476785D02*
G01X869500Y-1340300D01*
G01X774700Y1642301D02*
G01X774700Y1447800D01*
G01X980400Y-365885D02*
G01X869500Y-476785D01*
G01X774700Y1447800D02*
G01X980400Y1242100D01*
G01X980400Y-365885D01*
G01X764100Y-621000D02*
G01X726000Y-621000D01*
G01X0Y1655001D02*
G01X0Y1524000D01*
G01X798300Y-586800D02*
G01X764100Y-621000D01*
G01X0Y1524000D02*
G01X165100Y1358900D01*
G01X798300Y-447293D02*
G01X798300Y-586800D01*
G01X165100Y1358900D02*
G01X507999Y1358900D01*
G01X909200Y-336393D02*
G01X798300Y-447293D01*
G01X507999Y1358900D02*
G01X909200Y957699D01*
G01X909200Y-336393D01*
G01X-762000Y1655000D02*
G01X-566400Y1459400D01*
G01X-566400Y1156910D01*
G01X-532190Y1122700D01*
G01X-229810Y1122700D01*
G01X-195600Y1156910D01*
G01X-195600Y1205290D01*
G01X-92790Y1308100D01*
G01X828248Y-367000D02*
G01X726000Y-367000D01*
G01X-92790Y1308100D02*
G01X508453Y1308100D01*
G01X873600Y-321647D02*
G01X828248Y-367000D01*
G01X508453Y1308100D02*
G01X873600Y942953D01*
G01X873600Y-321647D01*
G01X726001Y-1129000D02*
G01X751401Y-1129000D01*
G01X833900Y-1046500D01*
G01X833900Y-462039D01*
G01X262245Y1655000D02*
G01X254000Y1655000D01*
G01X833900Y-462039D02*
G01X944800Y-351139D01*
G01X944800Y972446D02*
G01X262245Y1655000D01*
G01X944800Y-351139D02*
G01X944800Y972446D01*
G04 Track End*

M02*

