G04 Layer: DrillDrawingLayer*
G04 EasyEDA Pro v2.2.47.7, 2026-05-26 21:04:04*
G04 Gerber Generator version 0.3*
G04 Scale: 100 percent, Rotated: No, Reflected: No*
G04 Dimensions in millimeters*
G04 Leading zeros omitted, absolute positions, 4 integers and 5 decimals*
G04 Generated by one-click*
G04 Object Configs: Pad,Via,Track,Text,Image,Dimension,BoardOutline,BoardCutout,CopperFilled,SolidRegion,FPCStiffener,Line,PlaneZone,ComponentProperty,ComponentSilkscreen,TearDrop*
G04 Layer Configs: 1,2,3,4,5,6,7,8,9,10,11,13,14,56*
G04 Copper Areas: 0*
%FSLAX45Y45*%
%MOMM*%
%AMIconRect*4,1,4,0.28,-0.28,-0.28,-0.28,-0.28,0.28,0.28,0.28,0.28,-0.28,0*4,0,4,0.233333,-0.233333,0.233333,0.233333,-0.233333,0.233333,-0.233333,-0.233333,0.233333,-0.233333,0*%
%AMIconTriangle*4,1,3,-0.339593,0.240473,0.339593,0.240473,0,-0.37884,-0.339593,0.240473,0*4,0,3,-0.265673,0.19404,0,-0.27342,0.266233,0.19404,-0.265673,0.19404,0*%
%AMIconStar6*4,1,12,0.12068,0.20888,0.298527,0.172713,0.241313,0,0.298527,-0.17206,0.12068,-0.208227,0,-0.344073,-0.120073,-0.208227,-0.298573,-0.17206,-0.240707,0,-0.298573,0.17206,-0.120073,0.20888,0,0.344073,0.12068,0.20888,0*4,0,12,-0.000467,0.273467,-0.090067,0.171733,-0.237533,0.136733,-0.193667,-0.007467,-0.237533,-0.1372,-0.090067,-0.171733,-0.000467,-0.273933,0.090067,-0.171733,0.237533,-0.1372,0.194133,0.007,0.237533,0.1372,0.090067,0.171267,-0.000467,0.273467,0*%
%AMIconStar4*4,1,8,-0.311733,0.311733,0,0.202533,0.311733,0.311733,0.202533,0,0.311733,-0.311733,0,-0.202533,-0.304407,-0.311733,-0.202533,0,-0.311733,0.311733,0*4,0,8,0.233333,-0.233333,0.1512,0,0.233333,0.233333,0,0.1512,-0.233333,0.233333,-0.1512,0,-0.233333,-0.233333,0,-0.1512,0.233333,-0.233333,0*%
%ADD10IconRect*%
%ADD11C,0.616X0.522667*%
%ADD12IconTriangle*%
%ADD13IconStar6*%
%ADD14IconStar4*%
G75*


G04 Drill Drawing Start*
G54D10*
G01X-1528000Y-1655000D03*
G01X-1528000Y1405000D03*
G01X1528000Y-1655000D03*
G01X1528000Y1405000D03*
G54D11*
G01X-1562100Y-499999D03*
G01X-1562100Y-249999D03*
G01X-1562100Y0D03*
G01X-1562100Y250000D03*
G01X-1562100Y499999D03*
G54D12*
G01X-1193800Y-673100D03*
G01X-1016000Y1143000D03*
G01X-723900Y127000D03*
G01X-508000Y1181100D03*
G01X-368300Y-914400D03*
G01X-368300Y-635000D03*
G01X-254000Y1181100D03*
G01X355600Y-863600D03*
G01X787400Y1346200D03*
G54D13*
G01X-1016000Y1655000D03*
G01X-762000Y1655000D03*
G01X-508000Y1655000D03*
G01X-254000Y1655000D03*
G01X0Y1655000D03*
G01X254000Y1655000D03*
G01X508000Y1655000D03*
G01X762000Y1655000D03*
G01X1016000Y1655000D03*
G54D14*
G01X-726000Y-113000D03*
G01X-726000Y-1383000D03*
G01X-726000Y-1129000D03*
G01X-726000Y-875000D03*
G01X-726000Y-621000D03*
G01X-726000Y-367000D03*
G01X-726000Y-1637000D03*
G01X726000Y-1637000D03*
G01X726000Y-621000D03*
G01X726000Y-367000D03*
G01X726000Y-1383000D03*
G01X726000Y-1129000D03*
G01X726000Y-875000D03*
G01X726000Y-113000D03*
G04 Drill Drawing End*

M02*

