;TYPE=PLATED
;Layer: PTH_Through
;EasyEDA Pro v2.2.47.7, 2026-05-26 20:46:59
;Gerber Generator version 0.3
M48
METRIC,LZ,0000.00000
;Hole size 1 = 0.30500 METRIC
T01C0.30500
;Hole size 2 = 1.20000 METRIC
T02C1.20000
%
G05
G90
T01
X8.211Y6.171
X1.887Y-4.998
X8.15999Y2.65198
X-3.76622Y1.35
X8.30656Y1.2395
X-3.723Y-1.122
X8.058Y-1.326
X-0.68907Y-5.03692
X8.17237Y-6.24995
X8.823Y0.0
X-8.14761Y-2.49286
X-7.905Y5.865
X3.621Y1.934
T02
X10.16Y6.25
X10.16Y3.75001
X10.16Y1.25001
X10.16Y-1.25001
X10.16Y-3.75001
X10.16Y-6.25
X-10.16Y6.25
X-10.16Y3.75001
X-10.16Y1.25001
X-10.16Y-1.25001
X-10.16Y-3.75001
X-10.16Y-6.25
M30