G04 Layer: BottomLayer*
G04 EasyEDA Pro v2.2.47.7, 2026-05-26 20:46:59*
G04 Gerber Generator version 0.3*
G04 Scale: 100 percent, Rotated: No, Reflected: No*
G04 Dimensions in millimeters*
G04 Leading zeros omitted, absolute positions, 4 integers and 5 decimals*
G04 Generated by one-click*
G04 Object Configs: Pad,Via,Track,Text,Image,Dimension,BoardOutline,BoardCutout,CopperFilled,SolidRegion,FPCStiffener,Line,PlaneZone,ComponentProperty,ComponentSilkscreen,TearDrop*
G04 Layer Configs: 1,2,3,4,5,6,7,8,9,10,11,13,14,56*
G04 Copper Areas: 4*
%FSLAX45Y45*%
%MOMM*%
%ADD10C,0.2032*%
%ADD11C,0.254*%
%ADD12R,1.8X1.8*%
%ADD13C,1.8*%
%ADD14C,0.61*%
%ADD15C,0.6825*%
G75*


G04 Copper Start*
G36*
G01X-1198386Y1052600D02*
G01X-1196777Y1066883D01*
G01X-1192030Y1080449D01*
G01X-1184383Y1092619D01*
G01X-1174219Y1102783D01*
G01X-1162049Y1110430D01*
G01X-1148483Y1115177D01*
G01X-1134200Y1116786D01*
G01X1154600Y1116786D01*
G01X1168883Y1115177D01*
G01X1182449Y1110430D01*
G01X1194619Y1102783D01*
G01X1204783Y1092619D01*
G01X1212430Y1080449D01*
G01X1217177Y1066883D01*
G01X1218786Y1052600D01*
G01X1218786Y-848600D01*
G01X1217177Y-862883D01*
G01X1212430Y-876449D01*
G01X1204783Y-888619D01*
G01X1194619Y-898783D01*
G01X1182449Y-906430D01*
G01X1168883Y-911177D01*
G01X1154600Y-912786D01*
G01X-1134200Y-912786D01*
G01X-1148483Y-911177D01*
G01X-1162049Y-906430D01*
G01X-1174219Y-898783D01*
G01X-1184383Y-888619D01*
G01X-1192030Y-876449D01*
G01X-1196777Y-862883D01*
G01X-1198386Y-848600D01*
G01X-1198386Y534990D01*
G01X-1141804Y534990D01*
G01X-1140051Y523923D01*
G01X-1134964Y513939D01*
G01X-1127041Y506016D01*
G01X-1117057Y500929D01*
G01X-1105990Y499176D01*
G01X-1036243Y499176D01*
G01X-1058047Y493579D01*
G01X-1078504Y484187D01*
G01X-1096960Y471299D01*
G01X-1112824Y455329D01*
G01X-1125588Y436787D01*
G01X-1134844Y416267D01*
G01X-1140295Y394427D01*
G01X-1141767Y371965D01*
G01X-1139212Y349599D01*
G01X-1132713Y328048D01*
G01X-1122477Y307999D01*
G01X-1108833Y290095D01*
G01X-1092216Y274909D01*
G01X-1073159Y262928D01*
G01X-1052272Y254534D01*
G01X-1030223Y249997D01*
G01X-1051337Y245737D01*
G01X-1071415Y237939D01*
G01X-1089868Y226829D01*
G01X-1106156Y212735D01*
G01X-1119802Y196070D01*
G01X-1130404Y177321D01*
G01X-1137654Y157038D01*
G01X-1141337Y135816D01*
G01X-1141347Y114277D01*
G01X-1137682Y93052D01*
G01X-1130451Y72763D01*
G01X-1119865Y54004D01*
G01X-1106234Y37326D01*
G01X-1089959Y23218D01*
G01X-1071515Y12093D01*
G01X-1051444Y4276D01*
G01X-1030334Y-3D01*
G01X-1051444Y-4281D01*
G01X-1071515Y-12098D01*
G01X-1089959Y-23223D01*
G01X-1106234Y-37332D01*
G01X-1119865Y-54009D01*
G01X-1130451Y-72768D01*
G01X-1137682Y-93057D01*
G01X-1141347Y-114282D01*
G01X-1141337Y-135821D01*
G01X-1137654Y-157043D01*
G01X-1130404Y-177326D01*
G01X-1119802Y-196075D01*
G01X-1106156Y-212741D01*
G01X-1089868Y-226834D01*
G01X-1071415Y-237944D01*
G01X-1051337Y-245742D01*
G01X-1030223Y-250002D01*
G01X-1030223Y-250002D01*
G01X-1051337Y-254262D01*
G01X-1071415Y-262060D01*
G01X-1089868Y-273170D01*
G01X-1106156Y-287264D01*
G01X-1119802Y-303929D01*
G01X-1130404Y-322678D01*
G01X-1137654Y-342961D01*
G01X-1141337Y-364183D01*
G01X-1141347Y-385722D01*
G01X-1137682Y-406947D01*
G01X-1130451Y-427236D01*
G01X-1119865Y-445995D01*
G01X-1106234Y-462673D01*
G01X-1089959Y-476781D01*
G01X-1071515Y-487906D01*
G01X-1051444Y-495723D01*
G01X-1030334Y-500002D01*
G01X-1052249Y-504519D01*
G01X-1073016Y-512847D01*
G01X-1091980Y-524722D01*
G01X-1108541Y-539769D01*
G01X-1122174Y-557511D01*
G01X-1132449Y-577387D01*
G01X-1139040Y-598770D01*
G01X-1141740Y-620981D01*
G01X-1140462Y-643320D01*
G01X-1135248Y-665079D01*
G01X-1126261Y-685570D01*
G01X-1113787Y-704145D01*
G01X-1098220Y-720217D01*
G01X-1080052Y-733278D01*
G01X-1059858Y-742913D01*
G01X-1038276Y-748819D01*
G01X-1015990Y-750809D01*
G01X-993703Y-748819D01*
G01X-972122Y-742913D01*
G01X-951928Y-733278D01*
G01X-933760Y-720217D01*
G01X-918193Y-704145D01*
G01X-905718Y-685570D01*
G01X-896732Y-665079D01*
G01X-891518Y-643320D01*
G01X-890240Y-620981D01*
G01X-892940Y-598770D01*
G01X-899531Y-577387D01*
G01X-909806Y-557511D01*
G01X-923439Y-539769D01*
G01X-940000Y-524722D01*
G01X-958963Y-512847D01*
G01X-979731Y-504519D01*
G01X-1001645Y-500002D01*
G01X-980535Y-495723D01*
G01X-960464Y-487906D01*
G01X-942021Y-476781D01*
G01X-925745Y-462673D01*
G01X-912115Y-445995D01*
G01X-901529Y-427236D01*
G01X-894298Y-406947D01*
G01X-890633Y-385722D01*
G01X-890643Y-364183D01*
G01X-894326Y-342961D01*
G01X-901575Y-322678D01*
G01X-912178Y-303929D01*
G01X-925823Y-287264D01*
G01X-942111Y-273170D01*
G01X-960565Y-262060D01*
G01X-980643Y-254262D01*
G01X-1001756Y-250002D01*
G01X-980643Y-245742D01*
G01X-960565Y-237944D01*
G01X-942111Y-226834D01*
G01X-925823Y-212741D01*
G01X-912178Y-196075D01*
G01X-901575Y-177326D01*
G01X-894326Y-157043D01*
G01X-890643Y-135821D01*
G01X-890633Y-114282D01*
G01X-894298Y-93057D01*
G01X-901529Y-72768D01*
G01X-912115Y-54009D01*
G01X-925745Y-37332D01*
G01X-942021Y-23223D01*
G01X-960464Y-12098D01*
G01X-980535Y-4281D01*
G01X-1001645Y-3D01*
G01X-980535Y4276D01*
G01X-960464Y12093D01*
G01X-942021Y23218D01*
G01X-925745Y37326D01*
G01X-912115Y54004D01*
G01X-901529Y72763D01*
G01X-894298Y93052D01*
G01X-890633Y114277D01*
G01X-890643Y135816D01*
G01X-894326Y157038D01*
G01X-901575Y177321D01*
G01X-912178Y196070D01*
G01X-925823Y212735D01*
G01X-942111Y226829D01*
G01X-960565Y237939D01*
G01X-980643Y245737D01*
G01X-1001756Y249997D01*
G01X-979708Y254534D01*
G01X-958821Y262928D01*
G01X-939764Y274909D01*
G01X-923147Y290095D01*
G01X-909502Y307999D01*
G01X-899267Y328048D01*
G01X-892767Y349599D01*
G01X-890213Y371965D01*
G01X-891684Y394427D01*
G01X-897135Y416267D01*
G01X-906391Y436787D01*
G01X-919155Y455329D01*
G01X-935020Y471299D01*
G01X-953476Y484187D01*
G01X-973933Y493579D01*
G01X-995737Y499176D01*
G01X-925990Y499176D01*
G01X-914923Y500929D01*
G01X-904939Y506016D01*
G01X-897016Y513939D01*
G01X-891929Y523923D01*
G01X-890176Y534990D01*
G01X-890176Y586943D01*
G01X-856813Y586943D01*
G01X-855182Y571879D01*
G01X-850175Y557578D01*
G01X-842052Y544787D01*
G01X-831237Y534174D01*
G01X-818296Y526292D01*
G01X-803903Y521555D01*
G01X-788811Y520207D01*
G01X-773807Y522321D01*
G01X-759674Y527786D01*
G01X-755427Y527786D01*
G01X-415998Y188358D01*
G01X-427236Y177846D01*
G01X-435749Y165027D01*
G01X-441077Y150591D01*
G01X-442935Y135315D01*
G01X-441222Y120023D01*
G01X-436031Y105537D01*
G01X-427641Y92637D01*
G01X-416504Y82019D01*
G01X-403219Y74253D01*
G01X-388502Y69759D01*
G01X-373145Y68777D01*
G01X-357976Y71361D01*
G01X-343811Y77372D01*
G01X-331412Y86486D01*
G01X-242223Y86486D01*
G01X-374636Y-45927D01*
G01X-374636Y-45927D01*
G01X-389818Y-48241D01*
G01X-404059Y-53986D01*
G01X-416598Y-62852D01*
G01X-426761Y-74364D01*
G01X-434004Y-87906D01*
G01X-437937Y-102750D01*
G01X-438351Y-118101D01*
G01X-435222Y-133136D01*
G01X-428720Y-147048D01*
G01X-419191Y-159091D01*
G01X-407148Y-168620D01*
G01X-393236Y-175122D01*
G01X-378201Y-178251D01*
G01X-362850Y-177837D01*
G01X-348006Y-173904D01*
G01X-334464Y-166661D01*
G01X-322952Y-156498D01*
G01X-314086Y-143959D01*
G01X-308341Y-129718D01*
G01X-306027Y-114536D01*
G01X-140605Y50886D01*
G01X446377Y50886D01*
G01X154395Y-241096D01*
G01X146685Y-251144D01*
G01X141838Y-262845D01*
G01X140185Y-275401D01*
G01X140185Y-454591D01*
G01X131087Y-466962D01*
G01X125079Y-481095D01*
G01X122482Y-496230D01*
G01X123437Y-511557D01*
G01X127891Y-526254D01*
G01X135606Y-539532D01*
G01X146169Y-550679D01*
G01X159012Y-559098D01*
G01X173448Y-564336D01*
G01X188701Y-566114D01*
G01X203955Y-564336D01*
G01X218390Y-559096D01*
G01X231233Y-550677D01*
G01X241795Y-539530D01*
G01X249510Y-526252D01*
G01X253964Y-511555D01*
G01X254918Y-496228D01*
G01X252321Y-481092D01*
G01X246312Y-466960D01*
G01X237213Y-454589D01*
G01X237213Y-295496D01*
G01X535195Y2486D01*
G01X816033Y2486D01*
G01X816869Y-10789D01*
G01X820339Y-23630D01*
G01X826301Y-35520D01*
G01X834516Y-45981D01*
G01X834516Y-72826D01*
G01X819510Y-67719D01*
G01X803721Y-66319D01*
G01X788051Y-68705D01*
G01X773395Y-74743D01*
G01X760590Y-84086D01*
G01X739500Y-84086D01*
G01X726944Y-85739D01*
G01X715243Y-90586D01*
G01X705195Y-98295D01*
G01X234905Y-568586D01*
G01X64596Y-568586D01*
G01X-2634Y-501356D01*
G01X-4949Y-486175D01*
G01X-10693Y-471933D01*
G01X-19559Y-459394D01*
G01X-31071Y-449231D01*
G01X-44613Y-441988D01*
G01X-59457Y-438055D01*
G01X-74809Y-437641D01*
G01X-89843Y-440770D01*
G01X-103755Y-447273D01*
G01X-115798Y-456801D01*
G01X-125327Y-468844D01*
G01X-131829Y-482756D01*
G01X-134958Y-497791D01*
G01X-134544Y-513142D01*
G01X-130611Y-527986D01*
G01X-123368Y-541528D01*
G01X-113205Y-553040D01*
G01X-100666Y-561906D01*
G01X-86425Y-567651D01*
G01X-71243Y-569965D01*
G01X10196Y-651405D01*
G01X20244Y-659114D01*
G01X31944Y-663961D01*
G01X44501Y-665614D01*
G01X255000Y-665614D01*
G01X267556Y-663961D01*
G01X279257Y-659114D01*
G01X289305Y-651405D01*
G01X759595Y-181114D01*
G01X760590Y-181114D01*
G01X773395Y-190457D01*
G01X788051Y-196495D01*
G01X803721Y-198881D01*
G01X819510Y-197481D01*
G01X834516Y-192374D01*
G01X834516Y-524027D01*
G01X796554Y-561989D01*
G01X782810Y-568317D01*
G01X770859Y-577596D01*
G01X761323Y-589342D01*
G01X754696Y-602944D01*
G01X751326Y-617694D01*
G01X751387Y-632824D01*
G01X754875Y-647547D01*
G01X761610Y-661095D01*
G01X771241Y-672764D01*
G01X783266Y-681947D01*
G01X797059Y-688165D01*
G01X811903Y-691094D01*
G01X827025Y-690583D01*
G01X841637Y-686657D01*
G01X854979Y-679521D01*
G01X866356Y-669547D01*
G01X875176Y-657254D01*
G01X880980Y-643281D01*
G01X883466Y-628356D01*
G01X882504Y-613257D01*
G01X892001Y-603759D01*
G01X890196Y-625080D01*
G01X892030Y-646399D01*
G01X897450Y-667098D01*
G01X906299Y-686580D01*
G01X918322Y-704280D01*
G01X933170Y-719687D01*
G01X950414Y-732355D01*
G01X969555Y-741918D01*
G01X990040Y-748099D01*
G01X1011276Y-750720D01*
G01X1032649Y-749704D01*
G01X1053541Y-745081D01*
G01X1073347Y-736984D01*
G01X1091495Y-725649D01*
G01X1107460Y-711402D01*
G01X1120779Y-694656D01*
G01X1131068Y-675895D01*
G01X1138029Y-655661D01*
G01X1141461Y-634541D01*
G01X1141265Y-613145D01*
G01X1137445Y-592091D01*
G01X1130113Y-571990D01*
G01X1119481Y-553421D01*
G01X1105856Y-536922D01*
G01X1089633Y-522971D01*
G01X1071280Y-511971D01*
G01X1051328Y-504240D01*
G01X1030355Y-500002D01*
G01X1050314Y-496055D01*
G01X1069376Y-488943D01*
G01X1087042Y-478852D01*
G01X1102851Y-466046D01*
G01X1116389Y-450858D01*
G01X1127302Y-433688D01*
G01X1135305Y-414982D01*
G01X1140188Y-395232D01*
G01X1141824Y-374952D01*
G01X1140170Y-354674D01*
G01X1135269Y-334928D01*
G01X1127250Y-316230D01*
G01X1116321Y-299069D01*
G01X1102770Y-283894D01*
G01X1086950Y-271101D01*
G01X1069274Y-261025D01*
G01X1050206Y-253931D01*
G01X1030244Y-250002D01*
G01X1050206Y-246073D01*
G01X1069274Y-238979D01*
G01X1086950Y-228903D01*
G01X1102770Y-216111D01*
G01X1116321Y-200935D01*
G01X1127250Y-183774D01*
G01X1135269Y-165076D01*
G01X1140170Y-145330D01*
G01X1141824Y-125052D01*
G01X1140188Y-104772D01*
G01X1135305Y-85022D01*
G01X1127302Y-66317D01*
G01X1116389Y-49146D01*
G01X1102851Y-33958D01*
G01X1087042Y-21152D01*
G01X1069376Y-11061D01*
G01X1050314Y-3949D01*
G01X1030355Y-3D01*
G01X1050314Y3944D01*
G01X1069376Y11056D01*
G01X1087042Y21147D01*
G01X1102851Y33953D01*
G01X1116389Y49141D01*
G01X1127302Y66311D01*
G01X1135305Y85017D01*
G01X1140188Y104767D01*
G01X1141824Y125047D01*
G01X1140170Y145325D01*
G01X1135269Y165071D01*
G01X1127250Y183769D01*
G01X1116321Y200930D01*
G01X1102770Y216105D01*
G01X1086950Y228898D01*
G01X1069274Y238974D01*
G01X1050206Y246068D01*
G01X1030244Y249997D01*
G01X1052292Y254534D01*
G01X1073179Y262928D01*
G01X1092236Y274909D01*
G01X1108853Y290095D01*
G01X1122498Y307999D01*
G01X1132733Y328048D01*
G01X1139233Y349599D01*
G01X1141787Y371965D01*
G01X1140316Y394427D01*
G01X1134865Y416267D01*
G01X1125609Y436787D01*
G01X1112845Y455329D01*
G01X1096980Y471299D01*
G01X1078524Y484187D01*
G01X1058067Y493579D01*
G01X1036263Y499176D01*
G01X1106010Y499176D01*
G01X1117077Y500929D01*
G01X1127061Y506016D01*
G01X1134984Y513939D01*
G01X1140071Y523923D01*
G01X1141824Y534990D01*
G01X1141824Y714990D01*
G01X1140071Y726057D01*
G01X1134984Y736041D01*
G01X1127061Y743964D01*
G01X1117077Y749051D01*
G01X1106010Y750804D01*
G01X926010Y750804D01*
G01X914943Y749051D01*
G01X904959Y743964D01*
G01X897036Y736041D01*
G01X891949Y726057D01*
G01X890196Y714990D01*
G01X890196Y616613D01*
G01X887373Y619436D01*
G01X885196Y634108D01*
G01X879812Y647929D01*
G01X871492Y660207D01*
G01X860650Y670329D01*
G01X847830Y677788D01*
G01X833673Y682211D01*
G01X818887Y683377D01*
G01X804211Y681227D01*
G01X790380Y675869D01*
G01X778086Y667572D01*
G01X767944Y656749D01*
G01X760461Y643943D01*
G01X756012Y629793D01*
G01X754819Y615009D01*
G01X756941Y600330D01*
G01X762274Y586489D01*
G01X770549Y574180D01*
G01X781353Y564018D01*
G01X794145Y556511D01*
G01X808286Y552036D01*
G01X808286Y331500D01*
G01X808288Y331062D01*
G01X794073Y327782D01*
G01X780919Y321474D01*
G01X769462Y312441D01*
G01X760258Y301122D01*
G01X753752Y288064D01*
G01X750259Y273900D01*
G01X749947Y259315D01*
G01X752831Y245014D01*
G01X758774Y231690D01*
G01X767485Y219988D01*
G01X767485Y215064D01*
G01X735935Y183514D01*
G01X427673Y183514D01*
G01X428157Y199238D01*
G01X424923Y214633D01*
G01X418154Y228834D01*
G01X408230Y241040D01*
G01X395710Y250566D01*
G01X381299Y256874D01*
G01X365807Y259611D01*
G01X350107Y258621D01*
G01X335082Y253961D01*
G01X321577Y245892D01*
G01X310353Y234870D01*
G01X302040Y221514D01*
G01X-311937Y221514D01*
G01X-701027Y610605D01*
G01X-711075Y618314D01*
G01X-722775Y623161D01*
G01X-735332Y624814D01*
G01X-736374Y624814D01*
G01X-746484Y636100D01*
G01X-758892Y644797D01*
G01X-772951Y650450D01*
G01X-787925Y652764D01*
G01X-803034Y651619D01*
G01X-817489Y647074D01*
G01X-830534Y639366D01*
G01X-841490Y628898D01*
G01X-849783Y616217D01*
G01X-854981Y601984D01*
G01X-856813Y586943D01*
G01X-890176Y586943D01*
G01X-890176Y714990D01*
G01X-891929Y726057D01*
G01X-897016Y736041D01*
G01X-904939Y743964D01*
G01X-914923Y749051D01*
G01X-925990Y750804D01*
G01X-1105990Y750804D01*
G01X-1117057Y749051D01*
G01X-1127041Y743964D01*
G01X-1134964Y736041D01*
G01X-1140051Y726057D01*
G01X-1141804Y714990D01*
G01X-1141804Y534990D01*
G01X-1198386Y534990D01*
G01X-1198386Y1052600D01*
G37*
G54D10*
G01X-1198386Y1052600D02*
G02X-1134200Y1116786I64186J0D01*
G01X1154600Y1116786D01*
G02X1218786Y1052600I0J-64186D01*
G01X1218786Y-848600D01*
G02X1154600Y-912786I-64186J0D01*
G01X-1134200Y-912786D01*
G02X-1198386Y-848600I0J64186D01*
G01X-1198386Y1052600D01*
G01X-1030223Y-250002D02*
G03X-1030334Y-500002I14233J-125006D01*
G03X-1015990Y-750809I14345J-124993D01*
G03X-1001645Y-500002I0J125814D01*
G03X-1001756Y-250002I-14345J124993D01*
G03X-1001645Y-3I-14233J125006D01*
G03X-1001756Y249997I-14345J124993D01*
G03X-995737Y499176I-14233J125006D01*
G01X-925990Y499176D01*
G03X-890176Y534990I0J35814D01*
G01X-890176Y714990D01*
G03X-925990Y750804I-35814J0D01*
G01X-1105990Y750804D01*
G03X-1141804Y714990I0J-35814D01*
G01X-1141804Y534990D01*
G03X-1105990Y499176I35814J0D01*
G01X-1036243Y499176D01*
G03X-1030223Y249997I20253J-124173D01*
G03X-1030334Y-3I14233J-125006D01*
G03X-1030223Y-250002I14345J-124993D01*
G01X-374636Y-45927D02*
G03X-419191Y-159091I2336J-66273D01*
G03X-306027Y-114536I46891J46891D01*
G01X-140605Y50886D01*
G01X446377Y50886D01*
G01X154395Y-241096D01*
G03X140185Y-275401I34305J-34305D01*
G01X140185Y-454591D01*
G03X188701Y-566114I48515J-45209D01*
G03X237213Y-454589I-1J66314D01*
G01X237213Y-295496D01*
G01X535195Y2486D01*
G01X816033Y2486D01*
G03X834516Y-45981I66267J-2486D01*
G01X834516Y-72826D01*
G03X760590Y-84086I-28716J-59774D01*
G01X739500Y-84086D01*
G03X705195Y-98295I0J-48514D01*
G01X234905Y-568586D01*
G01X64596Y-568586D01*
G01X-2634Y-501356D01*
G03X-115798Y-456801I-66273J-2336D01*
G03X-71243Y-569965I46891J-46891D01*
G01X10196Y-651405D01*
G03X44501Y-665614I34305J34305D01*
G01X255000Y-665614D01*
G03X289305Y-651405I0J48514D01*
G01X759595Y-181114D01*
G01X760590Y-181114D01*
G03X834516Y-192374I45210J48514D01*
G01X834516Y-524027D01*
G01X796554Y-561989D01*
G03X783266Y-681947I20683J-63006D01*
G03X882504Y-613257I33971J56952D01*
G01X892001Y-603759D01*
G03X1091495Y-725649I124009J-21236D01*
G03X1030355Y-500002I-75485J100654D01*
G03X1141824Y-374952I-14345J124993D01*
G03X1030244Y-250002I-125814J-56D01*
G03X1141824Y-125052I-14233J125006D01*
G03X1030355Y-3I-125814J56D01*
G03X1141824Y125047I-14345J124993D01*
G03X1030244Y249997I-125814J-56D01*
G03X1141787Y371965I-14233J125006D01*
G03X1036263Y499176I-125777J3038D01*
G01X1106010Y499176D01*
G03X1141824Y534990I0J35814D01*
G01X1141824Y714990D01*
G03X1106010Y750804I-35814J0D01*
G01X926010Y750804D01*
G03X890196Y714990I0J-35814D01*
G01X890196Y616613D01*
G01X887373Y619436D01*
G03X778086Y667572I-66273J-2336D01*
G03X808286Y552036I43014J-50472D01*
G01X808286Y331500D01*
G01X808288Y331062D01*
G03X753752Y288064I7711J-65864D01*
G03X767485Y219988I62247J-22866D01*
G01X767485Y215064D01*
G01X735935Y183514D01*
G01X427673Y183514D01*
G03X381299Y256874I-65573J9886D01*
G03X302040Y221514I-19199J-63474D01*
G01X-311937Y221514D01*
G01X-701027Y610605D01*
G03X-735332Y624814I-34305J-34305D01*
G01X-736374Y624814D01*
G03X-854981Y601984I-54126J-38314D01*
G03X-759674Y527786I64481J-15484D01*
G01X-755427Y527786D01*
G01X-415998Y188358D01*
G03X-427641Y92637I39377J-53358D01*
G03X-331412Y86486I51019J42363D01*
G01X-242223Y86486D01*
G01X-374636Y-45927D01*
G54D11*
G01X-926244Y375003D02*
G01X-900336Y375003D01*
G01X-1105736Y375003D02*
G01X-1131644Y375003D01*
G01X1105756Y-375008D02*
G01X1131664Y-375008D01*
G04 Copper End*

G04 Pad Start*
G54D12*
G01X1016010Y624990D03*
G54D13*
G01X1016010Y375003D03*
G01X1016010Y124991D03*
G01X1016010Y-124996D03*
G01X1016010Y-375008D03*
G01X1016010Y-624995D03*
G54D12*
G01X-1015990Y624990D03*
G54D13*
G01X-1015990Y375003D03*
G01X-1015990Y124991D03*
G01X-1015990Y-124996D03*
G01X-1015990Y-375008D03*
G01X-1015990Y-624995D03*
G04 Pad End*

G04 Via Start*
G54D14*
G01X821100Y617100D03*
G01X188700Y-499800D03*
G01X815999Y265198D03*
G01X-376622Y135000D03*
G01X830656Y123950D03*
G01X-372300Y-112200D03*
G01X805800Y-132600D03*
G01X-68907Y-503692D03*
G01X817237Y-624995D03*
G01X882300Y0D03*
G01X-814761Y-249286D03*
G01X-790500Y586500D03*
G01X362100Y193400D03*
G04 Via End*

G04 Track Start*
G54D11*
G01X-160700Y99400D02*
G01X-372300Y-112200D01*
G01X44501Y-617100D02*
G01X-68907Y-503692D01*
G01X805800Y-132600D02*
G01X739500Y-132600D01*
G01X255000Y-617100D01*
G01X44501Y-617100D01*
G01X830656Y123950D02*
G01X806106Y99400D01*
G01X-160700Y99400D01*
G01X341700Y173000D02*
G01X362100Y193400D01*
G01X-332032Y173000D02*
G01X341700Y173000D01*
G01X-790499Y586501D02*
G01X-780298Y576300D01*
G01X-735332Y576300D01*
G01X-332032Y173000D01*
G01X817237Y-609915D02*
G01X817237Y-624995D01*
G01X882300Y0D02*
G01X883030Y-730D01*
G01X883030Y-544122D02*
G01X817237Y-609915D01*
G01X883030Y-730D02*
G01X883030Y-544122D01*
G01X-376622Y135000D02*
G01X756030Y135000D01*
G01X815999Y194969D01*
G01X815999Y265198D01*
G01X188699Y-275401D02*
G01X188699Y-499801D01*
G01X515100Y51000D02*
G01X188699Y-275401D01*
G01X850710Y51000D02*
G01X515100Y51000D01*
G01X898110Y98401D02*
G01X850710Y51000D01*
G01X898110Y290190D02*
G01X898110Y98401D01*
G01X821100Y617100D02*
G01X856800Y581400D01*
G01X856800Y331500D01*
G01X898110Y290190D01*
G04 Track End*

M02*

